name C:\Users\u0101727\Documents\MyRepositories\upper-imu-dc\OpenSim\subject0\MA\MA_Splines\angle_in_n3_dof9_1.mot
datacolumns 10
datarows 42
range 148.42000000 148.83000000
endheader 
time	clav_prot	clav_elev	scapula_abduction	scapula_elevation	scapula_upward_rot	scapula_winging	plane_elv	shoulder_elv	axial_rot	
        148.42000000	        -44.34577705	         -7.65248351	         11.28790885	         -7.82036939	          8.23102828	         -2.83128850	         70.85495313	          3.42008115	         63.72152975	
        148.43000000	        -30.62585626	         -7.65248351	         11.28790885	         -7.82036939	          8.23102828	         -2.83128850	         70.85495313	          3.42008115	         63.72152975	
        148.44000000	        -16.90593547	         -7.65248351	         11.28790885	         -7.82036939	          8.23102828	         -2.83128850	         70.85495313	          3.42008115	         63.72152975	
        148.45000000	        -44.34577705	          4.60560848	         11.28790885	         -7.82036939	          8.23102828	         -2.83128850	         70.85495313	          3.42008115	         63.72152975	
        148.46000000	        -30.62585626	          4.60560848	         11.28790885	         -7.82036939	          8.23102828	         -2.83128850	         70.85495313	          3.42008115	         63.72152975	
        148.47000000	        -16.90593547	          4.60560848	         11.28790885	         -7.82036939	          8.23102828	         -2.83128850	         70.85495313	          3.42008115	         63.72152975	
        148.48000000	        -44.34577705	         16.86370047	         11.28790885	         -7.82036939	          8.23102828	         -2.83128850	         70.85495313	          3.42008115	         63.72152975	
        148.49000000	        -30.62585626	         16.86370047	         11.28790885	         -7.82036939	          8.23102828	         -2.83128850	         70.85495313	          3.42008115	         63.72152975	
        148.50000000	        -16.90593547	         16.86370047	         11.28790885	         -7.82036939	          8.23102828	         -2.83128850	         70.85495313	          3.42008115	         63.72152975	
        148.51000000	        -44.34577705	         -7.65248351	        -30.88730313	         -0.36668095	          8.23102828	         -2.83128850	         70.85495313	          3.42008115	         63.72152975	
        148.52000000	        -30.62585626	         -7.65248351	        -30.88730313	         -0.36668095	          8.23102828	         -2.83128850	         70.85495313	          3.42008115	         63.72152975	
        148.53000000	        -16.90593547	         -7.65248351	        -30.88730313	         -0.36668095	          8.23102828	         -2.83128850	         70.85495313	          3.42008115	         63.72152975	
        148.54000000	        -44.34577705	          4.60560848	        -30.88730313	         -0.36668095	          8.23102828	         -2.83128850	         70.85495313	          3.42008115	         63.72152975	
        148.55000000	        -30.62585626	          4.60560848	        -30.88730313	         -0.36668095	          8.23102828	         -2.83128850	         70.85495313	          3.42008115	         63.72152975	
        148.56000000	        -16.90593547	          4.60560848	        -30.88730313	         -0.36668095	          8.23102828	         -2.83128850	         70.85495313	          3.42008115	         63.72152975	
        148.57000000	        -44.34577705	         16.86370047	        -30.88730313	         -0.36668095	          8.23102828	         -2.83128850	         70.85495313	          3.42008115	         63.72152975	
        148.58000000	        -30.62585626	         16.86370047	        -30.88730313	         -0.36668095	          8.23102828	         -2.83128850	         70.85495313	          3.42008115	         63.72152975	
        148.59000000	        -16.90593547	         16.86370047	        -30.88730313	         -0.36668095	          8.23102828	         -2.83128850	         70.85495313	          3.42008115	         63.72152975	
        148.60000000	        -44.34577705	         -7.65248351	         -9.79969714	         -0.36668095	          8.23102828	         -2.83128850	         70.85495313	          3.42008115	         63.72152975	
        148.61000000	        -30.62585626	         -7.65248351	         -9.79969714	         -0.36668095	          8.23102828	         -2.83128850	         70.85495313	          3.42008115	         63.72152975	
        148.62000000	        -16.90593547	         -7.65248351	         -9.79969714	         -0.36668095	          8.23102828	         -2.83128850	         70.85495313	          3.42008115	         63.72152975	
        148.63000000	        -44.34577705	          4.60560848	         -9.79969714	         -0.36668095	          8.23102828	         -2.83128850	         70.85495313	          3.42008115	         63.72152975	
        148.64000000	        -30.62585626	          4.60560848	         -9.79969714	         -0.36668095	          8.23102828	         -2.83128850	         70.85495313	          3.42008115	         63.72152975	
        148.65000000	        -16.90593547	          4.60560848	         -9.79969714	         -0.36668095	          8.23102828	         -2.83128850	         70.85495313	          3.42008115	         63.72152975	
        148.66000000	        -44.34577705	         16.86370047	         -9.79969714	         -0.36668095	          8.23102828	         -2.83128850	         70.85495313	          3.42008115	         63.72152975	
        148.67000000	        -30.62585626	         16.86370047	         -9.79969714	         -0.36668095	          8.23102828	         -2.83128850	         70.85495313	          3.42008115	         63.72152975	
        148.68000000	        -16.90593547	         16.86370047	         -9.79969714	         -0.36668095	          8.23102828	         -2.83128850	         70.85495313	          3.42008115	         63.72152975	
        148.69000000	        -44.34577705	         -7.65248351	         11.28790885	         -0.36668095	          8.23102828	         -2.83128850	         70.85495313	          3.42008115	         63.72152975	
        148.70000000	        -30.62585626	         -7.65248351	         11.28790885	         -0.36668095	          8.23102828	         -2.83128850	         70.85495313	          3.42008115	         63.72152975	
        148.71000000	        -16.90593547	         -7.65248351	         11.28790885	         -0.36668095	          8.23102828	         -2.83128850	         70.85495313	          3.42008115	         63.72152975	
        148.72000000	        -44.34577705	          4.60560848	         11.28790885	         -0.36668095	          8.23102828	         -2.83128850	         70.85495313	          3.42008115	         63.72152975	
        148.73000000	        -30.62585626	          4.60560848	         11.28790885	         -0.36668095	          8.23102828	         -2.83128850	         70.85495313	          3.42008115	         63.72152975	
        148.74000000	        -16.90593547	          4.60560848	         11.28790885	         -0.36668095	          8.23102828	         -2.83128850	         70.85495313	          3.42008115	         63.72152975	
        148.75000000	        -44.34577705	         16.86370047	         11.28790885	         -0.36668095	          8.23102828	         -2.83128850	         70.85495313	          3.42008115	         63.72152975	
        148.76000000	        -30.62585626	         16.86370047	         11.28790885	         -0.36668095	          8.23102828	         -2.83128850	         70.85495313	          3.42008115	         63.72152975	
        148.77000000	        -16.90593547	         16.86370047	         11.28790885	         -0.36668095	          8.23102828	         -2.83128850	         70.85495313	          3.42008115	         63.72152975	
        148.78000000	        -44.34577705	         -7.65248351	        -30.88730313	          7.08700750	          8.23102828	         -2.83128850	         70.85495313	          3.42008115	         63.72152975	
        148.79000000	        -30.62585626	         -7.65248351	        -30.88730313	          7.08700750	          8.23102828	         -2.83128850	         70.85495313	          3.42008115	         63.72152975	
        148.80000000	        -16.90593547	         -7.65248351	        -30.88730313	          7.08700750	          8.23102828	         -2.83128850	         70.85495313	          3.42008115	         63.72152975	
        148.81000000	        -44.34577705	          4.60560848	        -30.88730313	          7.08700750	          8.23102828	         -2.83128850	         70.85495313	          3.42008115	         63.72152975	
        148.82000000	        -30.62585626	          4.60560848	        -30.88730313	          7.08700750	          8.23102828	         -2.83128850	         70.85495313	          3.42008115	         63.72152975	
        148.83000000	        -16.90593547	          4.60560848	        -30.88730313	          7.08700750	          8.23102828	         -2.83128850	         70.85495313	          3.42008115	         63.72152975	
